<?xml version="1.0" encoding="UTF-8" standalone="no"?>
<!DOCTYPE svg PUBLIC "-//W3C//DTD SVG 1.1//EN" "http://www.w3.org/Graphics/SVG/1.1/DTD/svg11.dtd">
<svg width="100%" height="100%" viewBox="0 0 1024 1024" version="1.1" xmlns="http://www.w3.org/2000/svg" xmlns:xlink="http://www.w3.org/1999/xlink" xml:space="preserve" xmlns:serif="http://www.serif.com/" style="fill-rule:evenodd;clip-rule:evenodd;stroke-linejoin:round;stroke-miterlimit:2;">
    <g transform="matrix(0.8125,0,0,0.8125,96.723463,95.999984)">
        <g transform="matrix(47.639484,0,0,47.639484,-42.450306,-59.673803)">
            <path d="M6.357,20L20,20L20,6.357L22,4.357L22,20.146L21.962,20.519L21.854,20.868L21.683,21.183L21.457,21.457L21.183,21.683L20.868,21.854L20.519,21.962L20.146,22L4.357,22L6.357,20ZM2,18.883L2,3.854L2.038,3.481L2.146,3.132L2.317,2.817L2.543,2.543L2.817,2.317L3.132,2.146L3.481,2.038L3.854,2L18.883,2L16.883,4L4,4L4,16.883L2,18.883Z" style="fill:rgb(102,16,242);"/>
        </g>
        <g transform="matrix(47.639484,0,0,47.639484,-42.450306,-59.673803)">
            <path d="M7,13.883L7,7C7,6.448 7.448,6 8,6C8.552,6 9,6.448 9,7L9,11.883L7,13.883Z" style="fill:rgb(102,16,242);"/>
        </g>
        <g transform="matrix(47.639484,0,0,47.639484,-42.450306,-59.673803)">
            <path d="M11,9.883L11,7C11,6.448 11.448,6 12,6C12.552,6 13,6.448 13,7L13,7.883L11,9.883Z" style="fill:rgb(102,16,242);"/>
        </g>
        <g transform="matrix(47.639484,0,0,47.639484,-42.450306,-59.673803)">
            <path d="M15,11.357L17,9.357L17,16C17,16.552 16.552,17 16,17C15.448,17 15,16.552 15,16L15,11.357Z" style="fill:rgb(102,16,242);"/>
        </g>
        <g transform="matrix(20.342795,0,0,20.342795,-121.745929,-138.969427)">
            <path d="M55.561,11.011L10.121,56.452C9.165,57.408 7.613,57.408 6.658,56.452C5.702,55.496 5.702,53.944 6.658,52.989L52.098,7.548C53.054,6.592 54.606,6.592 55.561,7.548C56.517,8.504 56.517,10.056 55.561,11.011Z" style="fill:rgb(102,16,242);"/>
        </g>
    </g>
</svg>
